EMG
version=1
nRows=24
nColumns=17
inDegrees=no
endheader
time	_right_gast_med	_right_glut_max	_left_gast_med	_left_glut_max	_right_glut_med	_right_bic_fem	_right_rect_fem	_right_vast_lat	_right_vast_med	_right_tens_fasc_lat	_left_glut_med	_left_bic_fem	_left_rect_fem	_left_vast_lat	_left_vast_med	_left_tens_fasc_lat
      0.51000000	     -2.37486291	      0.00066196	      0.01062063	     -0.13870180	     -0.01592583	      0.02453232	     -0.06225841	      0.03033856	      0.69026840	      0.09523884	     -0.00311760	      0.01790519	      0.00928121	      0.01474196	      0.07302462	     -0.08525103
      0.52000000	     -3.08245587	     -0.03490422	      0.01678362	     -0.14025569	     -0.00761242	      0.03091004	     -0.08176421	      0.05676028	      0.50391090	      0.12927184	      0.00782420	     -0.00777552	      0.02791689	      0.00940782	     -0.00821795	     -0.06274331
      0.53000000	     -1.48130059	     -0.07219160	      0.02528563	     -0.11559927	      0.00044553	      0.03992292	     -0.04736793	      0.03543901	      0.20727144	      0.10416140	      0.09305852	     -0.00569104	      0.03265835	      0.02368852	     -0.02756675	      0.01057750
      0.54000000	      0.22605357	     -0.02441540	      0.01366023	     -0.07044991	     -0.03887937	     -0.04494190	     -0.01672273	     -0.03586702	      0.11318593	      0.03319287	      0.11122552	      0.01323846	      0.04822857	      0.01964203	      0.00544097	      0.06599786
      0.55000000	      0.79965335	      0.01367933	      0.00978499	     -0.01812395	     -0.08302797	      0.02480664	     -0.00873027	     -0.17983773	      0.26338798	     -0.03111337	      0.05036938	      0.01582807	      0.04261293	      0.01669353	     -0.01576674	      0.01157024
      0.56000000	      0.78425580	      0.07750545	      0.01416413	      0.00880389	     -0.14332697	      0.07421573	     -0.02957110	     -0.27400950	      0.31698757	     -0.02551595	      0.00190338	      0.01913167	      0.00043512	      0.03095077	     -0.08918250	     -0.08903676
      0.57000000	      0.61472327	      0.02679283	      0.00110472	      0.01876269	     -0.17134048	     -0.00911575	     -0.02817773	     -0.07513206	      0.15511516	     -0.01205628	     -0.07607804	     -0.00018759	     -0.00848347	      0.04802901	     -0.04283983	     -0.01313895
      0.58000000	      0.50732839	     -0.13168377	     -0.00625355	      0.05558766	     -0.09059166	     -0.04467146	      0.01161753	      0.13297224	     -0.21927711	     -0.04243568	     -0.16357718	     -0.03661230	      0.00304337	      0.03464553	      0.09103527	      0.16514704
      0.59000000	      0.86232895	     -0.03424678	     -0.01084448	      0.08965346	      0.15689278	     -0.03417558	      0.28538761	      0.27309176	     -0.41093454	     -0.04715039	     -0.11380410	     -0.02875014	      0.00368089	     -0.00903099	      0.07397121	      0.17967629
      0.60000000	      1.36782980	      0.06015085	     -0.00456704	      0.01268520	      0.33008933	      0.05232860	      0.49459356	      0.11562482	     -0.20588382	     -0.10743836	     -0.03665503	      0.00919097	     -0.00479535	     -0.02776963	     -0.06080773	      0.06017783
      0.61000000	      0.90453887	      0.21444497	      0.02757888	     -0.17519350	      0.26250365	      0.09553947	      0.13073836	     -0.01203026	     -0.07666448	     -0.07016645	     -0.04465019	      0.03481027	     -0.00687276	     -0.01330082	     -0.08995067	     -0.04802752
      0.62000000	      0.01161528	      0.11927731	      0.05460019	     -0.25962272	      0.11048492	      0.05993085	     -0.20512606	      0.00968250	     -0.04024678	      0.06861576	     -0.06677341	      0.06199070	     -0.00745864	      0.00898589	      0.00633041	     -0.07954130
      0.63000000	     -0.45880836	     -0.10105876	      0.04262790	      0.09952287	     -0.02390712	      0.00755207	     -0.37499765	     -0.05761683	      0.09475300	      0.08513156	     -0.02692729	      0.07923306	     -0.01060897	      0.04928790	      0.07008613	     -0.07586341
      0.64000000	     -2.27055407	     -0.14469783	      0.01328004	      0.53405601	     -0.05820751	      0.00633738	     -0.30572236	      0.09531103	      0.10099611	      0.03157907	      0.01239532	      0.02098864	     -0.00646719	      0.09024308	      0.05469209	     -0.04878469
      0.65000000	     -2.29956794	     -0.08560120	      0.00468484	      0.46891236	     -0.05179125	      0.03174089	     -0.13293526	      0.06515452	      0.03653580	     -0.02014871	      0.02578354	     -0.05204999	     -0.00347953	      0.07746972	      0.02215128	      0.00399901
      0.66000000	     -1.16377997	     -0.01651472	     -0.00441470	      0.15235838	     -0.05747147	      0.03462833	     -0.00205878	     -0.04591711	      0.04005048	     -0.01817951	      0.07346211	     -0.05200144	     -0.00000716	      0.02199614	     -0.00877122	      0.02592670
      0.67000000	     -0.25629652	      0.13602354	     -0.01032680	     -0.00382002	     -0.04788221	     -0.01060856	      0.05059234	      0.01727485	     -0.03556528	      0.01928457	      0.10238388	     -0.01654082	      0.02001628	     -0.02186202	     -0.04340238	      0.02761660
      0.68000000	      0.67643946	      0.11608193	      0.00029804	     -0.02274642	     -0.03345480	     -0.05649395	      0.02349810	      0.09785518	     -0.31302142	      0.04375885	      0.08200968	      0.02474885	      0.02876896	     -0.03454117	     -0.06521802	      0.02107852
      0.69000000	      1.07797050	     -0.09996688	     -0.01740117	     -0.14672484	     -0.02612886	     -0.04810927	     -0.02411337	      0.01010731	     -0.32391182	      0.05844871	      0.05201822	      0.05584010	      0.00624300	     -0.03573152	     -0.03804550	      0.00457565
      0.70000000	      1.03220832	      0.02370357	     -0.02934777	     -0.19137976	     -0.00943787	      0.00112521	      0.03104739	     -0.08120536	      0.00376346	      0.06075206	      0.03426083	      0.07371423	     -0.01072276	     -0.01889699	      0.02680429	     -0.00588002
      0.71000000	      0.92492437	      0.19992836	     -0.00594146	     -0.04812067	      0.01608183	      0.03897898	      0.06016914	     -0.05524860	      0.21249594	      0.03307663	      0.02206939	      0.08722164	      0.00250893	     -0.01537867	      0.07097421	     -0.01878611
      0.72000000	      0.77225029	      0.09338660	     -0.01335186	      0.10194419	      0.01358266	      0.03864361	      0.03900078	     -0.01585183	      0.22967988	     -0.00087617	      0.01457706	      0.06906988	      0.02087001	     -0.04567510	      0.06319382	     -0.01826675
      0.73000000	      0.48918462	     -0.05095971	      0.00224753	      0.10015967	      0.01378666	     -0.00414997	      0.04702138	     -0.00869202	      0.17485084	     -0.00458607	      0.01672498	      0.03300219	      0.02089688	     -0.08052839	      0.00263868	     -0.00088388
      0.74000000	     -0.53083885	     -0.01238321	     -0.00696797	     -0.02320148	      0.03200367	     -0.06249117	      0.06471997	      0.01821489	      0.13345324	      0.00764831	      0.03309924	      0.01184717	      0.01358854	     -0.07510397	     -0.09006847	      0.01018918
